# xmcd
#
# Track frame offsets:
#	150
#	30349
#	55699
#	89499
#	109573
#	145280
#	165266
#	194092
#	220494
#
# Disc length: 3460 seconds
#
# Revision: 1
# Processed by: cddbd v1.4PL0 Copyright (c) Steve Scherf et al.
# Submitted via: EasyCDDAExtractor 6.2.0.3
#
DISCID=780d8209
DTITLE=led zeppelin - 3-17-1973 Munich
DYEAR=1973
DGENRE=
TTITLE0=Rock and Roll
TTITLE1=Over the Hills and far away
TTITLE2=Black Dog
TTITLE3=Misty mountain hop
TTITLE4=Since ive been loving you
TTITLE5=Dancing days
TTITLE6=Bron Y aur stomp
TTITLE7=The song remains the Same
TTITLE8=The rain Song
EXTD=
EXTT0=
EXTT1=
EXTT2=
EXTT3=
EXTT4=
EXTT5=
EXTT6=
EXTT7=
EXTT8=
PLAYORDER=
